<svg xmlns="http://www.w3.org/2000/svg" viewBox="0 -1000 1000 1000">
	<path fill="#CC0502" d="M443 -433C445 -434 445 -436 445 -437C445 -444 431 -450 421 -450C416 -450 412 -449 410 -446C405 -432 395 -423 378 -423C366 -423 354 -425 345 -436C336 -446 329 -459 329 -472C329 -502 341 -531 370 -531C388 -531 404 -521 412 -507C412 -506 413 -505 415 -505C423 -505 443 -517 443 -528C443 -530 443 -532 441 -534C427 -549 406 -557 382 -557C330 -557 284 -524 284 -478C284 -430 321 -401 367 -401C397 -401 426 -412 443 -433ZM270 -400C276 -400 283 -401 283 -405C283 -439 262 -473 262 -516C260 -529 260 -538 261 -544C262 -547 260 -550 256 -550C252 -552 250 -552 247 -552C223 -552 218 -542 204 -528C181 -503 173 -493 152 -457C148 -475 142 -504 140 -523C140 -533 145 -550 136 -550C132 -552 128 -552 125 -552C105 -552 97 -541 84 -528C58 -499 30 -464 13 -425C10 -418 9 -415 9 -412C9 -408 11 -400 15 -400C19 -401 22 -405 23 -408C24 -409 26 -413 30 -419C48 -456 74 -495 102 -523C102 -513 106 -504 106 -494C106 -483 110 -471 113 -458C117 -437 121 -428 127 -407C129 -400 141 -403 143 -408C161 -435 184 -471 204 -496C211 -507 218 -515 223 -520C223 -510 226 -500 226 -492C226 -482 230 -471 233 -458C237 -437 241 -428 247 -407C249 -401 253 -400 259 -400Z"/>
</svg>