<svg xmlns="http://www.w3.org/2000/svg" viewBox="0 -1000 1000 1000">
	<path fill="#CC0502" d="M171 -431C172 -433 172 -434 172 -436C172 -443 158 -449 148 -449C143 -449 139 -448 138 -444C132 -431 122 -422 106 -422C93 -422 82 -424 72 -434C63 -445 56 -458 56 -471C56 -501 68 -530 98 -530C115 -530 131 -520 139 -505C139 -504 140 -504 142 -504C150 -504 171 -516 171 -526C171 -529 170 -530 168 -532C154 -547 134 -556 109 -556C58 -556 12 -523 12 -476C12 -429 48 -399 94 -399C124 -399 153 -411 171 -431ZM437 -400C443 -400 450 -401 450 -405C450 -439 429 -473 429 -516C427 -529 427 -538 428 -544C429 -547 427 -550 423 -550C419 -552 417 -552 414 -552C390 -552 385 -542 371 -528C348 -503 340 -493 319 -457C315 -475 309 -504 307 -523C307 -533 312 -550 303 -550C299 -552 295 -552 292 -552C272 -552 264 -541 251 -528C225 -499 197 -464 180 -425C177 -418 176 -415 176 -412C176 -408 178 -400 182 -400C186 -401 189 -405 190 -408C191 -409 193 -413 197 -419C215 -456 241 -495 269 -523C269 -513 273 -504 273 -494C273 -483 277 -471 280 -458C284 -437 288 -428 294 -407C296 -400 308 -403 310 -408C328 -435 351 -471 371 -496C378 -507 385 -515 390 -520C390 -510 393 -500 393 -492C393 -482 397 -471 400 -458C404 -437 408 -428 414 -407C416 -401 420 -400 426 -400Z"/>
</svg>