<svg xmlns="http://www.w3.org/2000/svg" viewBox="0 -1000 1000 1000">
	<path fill="#CC0502" d="M301 -540C301 -546 289 -547 284 -547H279C274 -547 267 -546 266 -541C262 -523 259 -502 256 -480H182C184 -503 188 -523 191 -539C193 -546 179 -547 174 -547H169C164 -547 157 -546 156 -541C150 -518 145 -487 145 -457C145 -438 147 -419 149 -403C149 -397 160 -397 168 -397C175 -397 185 -397 185 -403C185 -424 182 -437 182 -457V-466H256C255 -462 255 -458 255 -454C255 -436 257 -419 259 -403C259 -397 270 -397 278 -397C285 -397 295 -397 295 -403C295 -424 292 -439 292 -460C292 -490 301 -519 301 -540ZM206 -357C203 -357 199 -355 195 -353C179 -345 142 -322 109 -297C100 -308 91 -317 84 -322C79 -326 71 -325 63 -324C59 -324 49 -323 60 -313C66 -307 78 -295 89 -282C54 -252 22 -217 8 -203C6 -201 6 -199 6 -197C6 -192 9 -189 12 -189C14 -189 15 -189 17 -191C34 -208 64 -241 98 -270C107 -258 113 -247 118 -239C122 -232 127 -233 132 -233C137 -235 148 -237 144 -244C142 -249 130 -270 118 -286C151 -311 186 -332 206 -343C210 -346 211 -348 211 -350C211 -353 209 -357 206 -357Z"/>
</svg>