<svg xmlns="http://www.w3.org/2000/svg" viewBox="0 -1000 1000 1000">
	<path fill="#CC0502" d="M77 -544C78 -551 67 -552 60 -553C52 -553 44 -553 42 -546C36 -524 31 -491 31 -462C31 -444 33 -427 34 -412H19C13 -412 10 -410 10 -406C10 -402 11 -399 17 -399H196C189 -392 166 -373 150 -354C135 -334 119 -304 117 -298C114 -291 123 -290 131 -290H139C145 -290 151 -291 151 -296C152 -304 161 -330 173 -348C189 -374 216 -394 227 -404C228 -405 228 -405 228 -406C228 -409 224 -412 219 -412H184C183 -429 181 -443 181 -461C181 -493 184 -515 190 -544C192 -551 181 -552 173 -552C166 -552 158 -553 156 -546C149 -521 146 -488 146 -455C146 -440 147 -425 148 -412H71C69 -429 69 -447 69 -464C69 -492 71 -519 77 -544Z"/>
</svg>