<svg xmlns="http://www.w3.org/2000/svg" viewBox="0 -1000 1000 1000">
	<path fill="#CC0502" d="M173 -585C186 -585 196 -599 196 -612C196 -621 189 -633 176 -633C163 -633 153 -619 153 -606C153 -597 160 -585 173 -585ZM260 -544C261 -551 250 -552 244 -552C239 -552 231 -551 227 -548C201 -532 173 -495 151 -457C145 -474 140 -515 140 -537V-544C141 -551 130 -552 124 -552C119 -552 111 -551 107 -548C94 -540 73 -519 55 -495C47 -484 7 -425 7 -409C7 -401 20 -401 22 -408C26 -413 54 -463 59 -469C73 -488 89 -512 101 -524C101 -505 106 -484 112 -459C116 -438 120 -427 126 -407C127 -401 140 -403 142 -408C146 -413 164 -443 179 -464C195 -487 211 -510 222 -520C222 -500 226 -484 232 -459C236 -438 240 -427 246 -407C247 -401 255 -400 263 -400C271 -400 282 -401 282 -406C282 -437 260 -491 260 -531Z"/>
</svg>