<svg xmlns="http://www.w3.org/2000/svg" viewBox="0 -1000 1000 1000">
	<path fill="#CC0502" d="M158 -458C158 -439 161 -421 161 -405C161 -399 173 -399 179 -399C185 -399 197 -399 197 -405C197 -425 194 -438 194 -456C194 -486 197 -511 202 -539H264C262 -533 262 -525 263 -519C266 -510 280 -500 287 -500C294 -500 287 -510 290 -524C291 -532 297 -538 298 -544C298 -548 297 -552 289 -552H150C143 -551 141 -550 141 -546C141 -542 142 -539 148 -539H167C162 -521 158 -485 158 -458ZM209 -357C206 -357 202 -355 198 -353C182 -345 145 -322 112 -297C103 -308 94 -317 87 -322C82 -326 74 -325 66 -324C62 -324 52 -323 63 -313C69 -307 81 -295 92 -282C57 -252 25 -217 11 -203C9 -201 9 -199 9 -197C9 -192 12 -189 15 -189C17 -189 18 -189 20 -191C37 -208 67 -241 101 -270C110 -258 116 -247 121 -239C125 -232 130 -233 135 -233C140 -235 151 -237 147 -244C145 -249 133 -270 121 -286C154 -311 189 -332 209 -343C213 -346 214 -348 214 -350C214 -353 212 -357 209 -357Z"/>
</svg>