<svg xmlns="http://www.w3.org/2000/svg" viewBox="0 -1000 1000 1000">
	<path fill="#CC0502" d="M180 -585C193 -585 203 -599 203 -612C203 -621 196 -633 183 -633C170 -633 160 -619 160 -606C160 -597 167 -585 180 -585ZM267 -544C268 -551 257 -552 251 -552C246 -552 238 -551 234 -548C208 -532 180 -495 158 -457C152 -474 147 -515 147 -537V-544C148 -551 137 -552 131 -552C126 -552 118 -551 114 -548C101 -540 80 -519 62 -495C54 -484 14 -425 14 -409C14 -401 27 -401 29 -408C33 -413 61 -463 66 -469C80 -488 96 -512 108 -524C108 -505 113 -484 119 -459C123 -438 127 -427 133 -407C134 -401 147 -403 149 -408C153 -413 171 -443 186 -464C202 -487 218 -510 229 -520C229 -500 233 -484 239 -459C243 -438 247 -427 253 -407C254 -401 262 -400 270 -400C278 -400 289 -401 289 -406C289 -437 267 -491 267 -531Z"/>
</svg>