<svg xmlns="http://www.w3.org/2000/svg" viewBox="0 -1000 1000 1000">
	<path fill="#CC0502" d="M256 -544C257 -551 246 -552 240 -552C235 -552 227 -551 223 -548C197 -532 169 -495 147 -457C141 -474 136 -515 136 -537V-544C137 -551 126 -552 120 -552C115 -552 107 -551 103 -548C90 -540 69 -519 51 -495C43 -484 3 -425 3 -409C3 -401 16 -401 18 -408C22 -413 50 -463 55 -469C69 -488 85 -512 97 -524C97 -505 102 -484 108 -459C112 -438 116 -427 122 -407C123 -401 136 -403 138 -408C142 -413 160 -443 175 -464C191 -487 207 -510 218 -520C218 -500 223 -483 228 -459C232 -438 238 -416 242 -407C244 -401 251 -400 259 -400C267 -400 278 -401 278 -406C278 -437 256 -491 256 -531Z"/>
</svg>