<svg xmlns="http://www.w3.org/2000/svg" viewBox="0 -1000 1000 1000">
	<path fill="#CC0502" d="M169 -544C169 -550 157 -551 152 -551H147C142 -551 135 -550 134 -545C130 -527 127 -506 124 -484H50C52 -507 56 -527 59 -543C61 -550 47 -551 42 -551H37C32 -551 25 -550 24 -545C18 -522 13 -491 13 -461C13 -442 15 -423 17 -407C17 -401 28 -401 36 -401C43 -401 53 -401 53 -407C53 -428 50 -441 50 -461V-470H124C123 -466 123 -462 123 -458C123 -440 125 -423 127 -407C127 -401 138 -401 146 -401C153 -401 163 -401 163 -407C163 -428 160 -443 160 -464C160 -494 169 -523 169 -544Z"/>
</svg>