<svg xmlns="http://www.w3.org/2000/svg" viewBox="0 -1000 1000 1000">
	<path fill="#CC0502" d="M144 -411H70C69 -426 68 -440 68 -455C68 -484 70 -513 75 -539H150C145 -516 142 -485 142 -455C142 -439 143 -424 144 -411ZM34 -411C26 -411 20 -411 14 -410C7 -410 4 -409 4 -405C4 -401 6 -398 12 -398H195C202 -398 203 -399 204 -403C204 -407 203 -410 195 -410L180 -411C179 -425 178 -440 178 -455C178 -484 180 -513 185 -539H208C217 -539 217 -541 217 -546C217 -550 215 -552 209 -552H84H27C21 -552 18 -550 18 -546C18 -542 20 -539 26 -539H40C35 -516 32 -485 32 -456C32 -440 33 -425 34 -411ZM115 -595C128 -595 138 -608 138 -621C138 -631 130 -643 117 -643C105 -643 95 -629 95 -616C95 -606 103 -595 115 -595Z"/>
</svg>