<svg xmlns="http://www.w3.org/2000/svg" viewBox="0 -1000 1000 1000">
	<path fill="#CC0502" d="M132 -459C132 -440 134 -421 136 -405C136 -399 147 -399 155 -399C162 -399 172 -399 172 -405C171 -423 170 -442 170 -461C170 -488 172 -514 177 -539H196C203 -539 204 -540 205 -544C205 -549 204 -552 196 -552H72H15C7 -552 6 -549 6 -544C6 -541 8 -539 13 -539H32C26 -518 22 -487 22 -459C22 -440 24 -421 26 -405C26 -399 37 -399 45 -399C52 -399 62 -399 62 -405C62 -423 60 -442 60 -461C60 -488 62 -514 67 -539H142C136 -518 132 -487 132 -459Z"/>
</svg>