<svg xmlns="http://www.w3.org/2000/svg" viewBox="0 -1000 1000 1000">
	<path fill="#CC0502" d="M174 -544C174 -550 162 -551 157 -551H152C147 -551 140 -550 139 -545C135 -527 132 -506 129 -484H55C57 -507 61 -527 64 -543C66 -550 52 -551 47 -551H42C37 -551 30 -550 29 -545C23 -522 18 -491 18 -461C18 -442 20 -423 22 -407C22 -401 33 -401 41 -401C48 -401 58 -401 58 -407C58 -428 55 -441 55 -461V-470H129C128 -466 128 -462 128 -458C128 -440 130 -423 132 -407C132 -401 143 -401 151 -401C158 -401 168 -401 168 -407C168 -428 165 -443 165 -464C165 -494 174 -523 174 -544Z"/>
</svg>