<svg xmlns="http://www.w3.org/2000/svg" viewBox="0 -1000 1000 1000">
	<path fill="#CC0502" d="M142 -459C142 -440 144 -421 146 -405C146 -399 157 -399 165 -399C172 -399 182 -399 182 -405C181 -423 180 -442 180 -461C180 -488 182 -514 187 -539H206C213 -539 214 -540 215 -544C215 -549 214 -552 206 -552H25C17 -552 16 -549 16 -544C16 -541 18 -539 23 -539H42C36 -518 32 -487 32 -459C32 -440 34 -421 36 -405C36 -399 47 -399 55 -399C62 -399 72 -399 72 -405C72 -423 70 -442 70 -461C70 -488 72 -514 77 -539H152C146 -518 142 -487 142 -459ZM370 -433C372 -434 372 -436 372 -437C372 -444 359 -450 349 -450C344 -450 339 -449 338 -446C332 -432 322 -423 305 -423C293 -423 281 -425 272 -436C263 -446 256 -459 256 -472C256 -502 268 -531 297 -531C315 -531 331 -521 339 -507C339 -506 340 -505 342 -505C350 -505 371 -517 371 -528C371 -530 370 -532 368 -534C354 -549 333 -557 309 -557C255.6162109375 -557 211.98046875 -523.5732421875 211.98046875 -475.951171875C211.98046875 -425.3427734375 248.6083984375 -401 294 -401C324 -401 353 -412 370 -433Z"/>
</svg>