<svg xmlns="http://www.w3.org/2000/svg" viewBox="0 -1000 1000 1000">
	<path fill="#CC0502" d="M126 -647C109 -643 11 -555 11 -513C11 -509 16 -507 22 -507C27 -507 31 -509 33 -511C56 -545 75 -583 107 -602C111 -605 110 -594 112 -583C116 -559 120 -534 127 -510C128 -507 132 -505 137 -505C147 -505 161 -511 161 -516C161 -553 146 -621 136 -640C133 -646 133 -648 126 -647ZM250 -517C296 -517 332 -546 332 -585C332 -634 294 -651 263 -651C214 -651 178 -620 178 -580C178 -539 214 -517 250 -517ZM255 -629C280 -629 294 -604 294 -580C294 -557 283 -536 257 -536C231 -536 217 -561 217 -585C217 -608 229 -629 255 -629Z"/>
</svg>