<svg xmlns="http://www.w3.org/2000/svg" viewBox="0 -1000 1000 1000">
	<path fill="#CC0502" d="M6 150C6 158 10 164 16 164C21 164 26 161 30 154C40 134 84 73 100 53C144 -3 200 -61 246 -106C256 -116 265 -124 265 -131C265 -139 256 -144 250 -144C247 -144 243 -143 240 -140C218 -118 211 -97 159 -97C142 -97 134 -108 134 -126C134 -132 137 -139 137 -146C137 -151 134 -153 130 -153C115 -153 108 -133 105 -118V-113C105 -89 128 -74 156 -74C175 -74 186 -80 186 -80C171 -68 128 -19 104 8C62 54 27 110 18 123C8 137 6 144 6 150Z"/>
</svg>