<svg xmlns="http://www.w3.org/2000/svg" viewBox="0 -1000 1000 1000">
	<path fill="#CC0502" d="M216 -357C213 -357 209 -355 205 -353C189 -345 152 -322 119 -297C110 -308 101 -317 94 -322C89 -326 81 -325 73 -324C69 -324 59 -323 70 -313C76 -307 88 -295 99 -282C64 -252 32 -217 18 -203C16 -201 16 -199 16 -197C16 -192 19 -189 22 -189C24 -189 25 -189 27 -191C44 -208 74 -241 108 -270C117 -258 123 -247 128 -239C132 -232 137 -233 142 -233C147 -235 158 -237 154 -244C152 -249 140 -270 128 -286C161 -311 196 -332 216 -343C220 -346 221 -348 221 -350C221 -353 219 -357 216 -357Z"/>
</svg>