<svg xmlns="http://www.w3.org/2000/svg" viewBox="0 -1000 1000 1000">
	<path fill="#CC0502" d="M150 -460C150 -443 152 -425 153 -411H80C79 -428 78 -445 78 -462C78 -489 80 -515 85 -539H160C154 -518 150 -488 150 -460ZM40 -460C40 -443 42 -426 43 -411C36 -411 29 -411 23 -410C17 -410 14 -409 14 -405C14 -401 15 -398 21 -398H204C212 -398 213 -399 213 -403C213 -407 212 -410 205 -410H190C189 -427 188 -445 188 -462C188 -489 190 -515 195 -539H218C225 -539 226 -540 227 -544C227 -549 226 -552 218 -552H93H37C30 -552 28 -550 28 -546C27 -542 29 -539 35 -539H50C44 -518 40 -488 40 -460Z"/>
</svg>