<svg xmlns="http://www.w3.org/2000/svg" viewBox="0 -1000 1000 1000">
	<path fill="#CC0502" d="M241 -563C241 -593 213 -609 182 -609C137 -609 99 -586 78 -564C76 -562 75 -559 75 -557C75 -551 80 -546 87 -546C91 -546 96 -548 101 -553C113 -565 139 -582 170 -582C188 -582 204 -576 204 -556C204 -529 158 -511 144 -507C138 -505 138 -496 148 -495C178 -492 219 -461 219 -419C219 -412 217 -403 214 -395C196 -346 63 -342 20 -342C13 -342 10 -340 10 -336C10 -332 16 -325 20 -324C29 -320 45 -318 65 -318C148 -318 256 -341 256 -425C256 -434 254 -444 251 -453C242 -481 227 -495 200 -507C200 -507 234 -526 239 -547C241 -553 241 -558 241 -563Z"/>
</svg>