<svg xmlns="http://www.w3.org/2000/svg" viewBox="0 -1000 1000 1000">
	<path fill="#CC0502" d="M155 -458C155 -439 158 -421 158 -405C158 -399 170 -399 176 -399C182 -399 194 -399 194 -405C194 -425 191 -438 191 -456C191 -486 194 -511 199 -539H261C259 -533 259 -525 260 -519C263 -510 277 -500 284 -500C291 -500 284 -510 287 -524C288 -532 294 -538 295 -544C295 -548 294 -552 286 -552H147C140 -551 138 -550 138 -546C138 -542 139 -539 145 -539H164C159 -521 155 -485 155 -458ZM206 -357C203 -357 199 -355 195 -353C179 -345 142 -322 109 -297C100 -308 91 -317 84 -322C79 -326 71 -325 63 -324C59 -324 49 -323 60 -313C66 -307 78 -295 89 -282C54 -252 22 -217 8 -203C6 -201 6 -199 6 -197C6 -192 9 -189 12 -189C14 -189 15 -189 17 -191C34 -208 64 -241 98 -270C107 -258 113 -247 118 -239C122 -232 127 -233 132 -233C137 -235 148 -237 144 -244C142 -249 130 -270 118 -286C151 -311 186 -332 206 -343C210 -346 211 -348 211 -350C211 -353 209 -357 206 -357Z"/>
</svg>