<svg xmlns="http://www.w3.org/2000/svg" viewBox="0 -1000 1000 1000">
	<path fill="#CC0502" d="M243 -459C243 -440 245 -421 247 -405C247 -399 258 -399 266 -399C273 -399 283 -399 283 -405C282 -423 281 -442 281 -461C281 -488 283 -514 288 -539H307C314 -539 315 -540 316 -544C316 -549 315 -552 307 -552H183H126C118 -552 117 -549 117 -544C117 -541 119 -539 124 -539H143C137 -518 133 -487 133 -459C133 -440 135 -421 137 -405C137 -399 148 -399 156 -399C163 -399 173 -399 173 -405C173 -423 171 -442 171 -461C171 -488 173 -514 178 -539H253C247 -518 243 -487 243 -459ZM209 -354C206 -354 202 -352 198 -350C182 -342 145 -319 112 -294C103 -305 94 -314 87 -319C82 -323 74 -322 66 -321C62 -321 52 -320 63 -310C69 -304 81 -292 92 -279C57 -249 25 -214 11 -200C9 -198 9 -196 9 -194C9 -189 12 -186 15 -186C17 -186 18 -186 20 -188C37 -205 67 -238 101 -267C110 -255 116 -244 121 -236C125 -229 130 -230 135 -230C140 -232 151 -234 147 -241C145 -246 133 -267 121 -283C154 -308 189 -329 209 -340C213 -343 214 -345 214 -347C214 -350 212 -354 209 -354Z"/>
</svg>