<svg xmlns="http://www.w3.org/2000/svg" viewBox="0 -1000 1000 1000">
	<path fill="#CC0502" d="M308 -540C308 -546 296 -547 291 -547H286C281 -547 274 -546 273 -541C269 -523 266 -502 263 -480H189C191 -503 195 -523 198 -539C200 -546 186 -547 181 -547H176C171 -547 164 -546 163 -541C157 -518 152 -487 152 -457C152 -438 154 -419 156 -403C156 -397 167 -397 175 -397C182 -397 192 -397 192 -403C192 -424 189 -437 189 -457V-466H263C262 -462 262 -458 262 -454C262 -436 264 -419 266 -403C266 -397 277 -397 285 -397C292 -397 302 -397 302 -403C302 -424 299 -439 299 -460C299 -490 308 -519 308 -540ZM213 -357C210 -357 206 -355 202 -353C186 -345 149 -322 116 -297C107 -308 98 -317 91 -322C86 -326 78 -325 70 -324C66 -324 56 -323 67 -313C73 -307 85 -295 96 -282C61 -252 29 -217 15 -203C13 -201 13 -199 13 -197C13 -192 16 -189 19 -189C21 -189 22 -189 24 -191C41 -208 71 -241 105 -270C114 -258 120 -247 125 -239C129 -232 134 -233 139 -233C144 -235 155 -237 151 -244C149 -249 137 -270 125 -286C158 -311 193 -332 213 -343C217 -346 218 -348 218 -350C218 -353 216 -357 213 -357Z"/>
</svg>