<svg xmlns="http://www.w3.org/2000/svg" viewBox="0 -1000 1000 1000">
	<path fill="#CC0502" d="M83 -544C84 -551 73 -552 66 -553C58 -553 50 -553 48 -546C42 -524 37 -491 37 -462C37 -444 39 -427 40 -412H25C19 -412 16 -410 16 -406C16 -402 17 -399 23 -399H202C195 -392 172 -373 156 -354C141 -334 125 -304 123 -298C120 -291 129 -290 137 -290H145C151 -290 157 -291 157 -296C158 -304 167 -330 179 -348C195 -374 222 -394 233 -404C234 -405 234 -405 234 -406C234 -409 230 -412 225 -412H190C189 -429 187 -443 187 -461C187 -493 190 -515 196 -544C198 -551 187 -552 179 -552C172 -552 164 -553 162 -546C155 -521 152 -488 152 -455C152 -440 153 -425 154 -412H77C75 -429 75 -447 75 -464C75 -492 77 -519 83 -544Z"/>
</svg>