<svg xmlns="http://www.w3.org/2000/svg" viewBox="0 -1000 1000 1000">
	<path fill="#CC0502" d="M321 -460C321 -443 323 -425 324 -411H251C250 -428 249 -445 249 -462C249 -489 251 -515 256 -539H331C325 -518 321 -488 321 -460ZM211 -460C211 -443 213 -426 214 -411C207 -411 200 -411 194 -410C188 -410 185 -409 185 -405C185 -401 186 -398 192 -398H375C383 -398 384 -399 384 -403C384 -407 383 -410 376 -410L361 -411C360 -428 359 -445 359 -462C359 -489 361 -515 366 -539H389C396 -539 397 -540 398 -544C398 -549 397 -552 389 -552H264H208C201 -552 199 -550 199 -546C198 -542 200 -539 206 -539H221C215 -518 211 -488 211 -460ZM33 -459C33 -440 35 -422 36 -406C37 -400 48 -400 54 -400C60 -400 73 -400 72 -406C71 -426 69 -439 69 -457C69 -487 72 -512 77 -540H139C137 -534 137 -526 138 -520C141 -511 155 -501 162 -501C169 -501 162 -511 165 -525C166 -533 172 -539 173 -545C173 -549 172 -553 164 -553H25C18 -552 16 -551 16 -547C16 -543 17 -540 23 -540H42C37 -522 33 -486 33 -459Z"/>
</svg>