<svg xmlns="http://www.w3.org/2000/svg" viewBox="0 -1000 1000 1000">
	<path fill="#CC0502" d="M72 -432C78 -431 91 -429 97 -429C132 -429 166 -444 174 -491C175 -494 175 -498 175 -501C175 -527 159 -552 133 -552C95 -552 65 -506 45 -450C25 -394 14 -347 14 -305C14 -297 19 -285 28 -285H29C39 -285 47 -298 47 -306C47 -324 50 -346 54 -368C59 -393 65 -417 72 -432ZM79 -460C89 -486 102 -520 124 -520C136 -520 145 -512 145 -499C145 -480 130 -463 123 -460C118 -457 111 -456 104 -456C98 -456 96 -456 79 -460Z"/>
</svg>