<svg xmlns="http://www.w3.org/2000/svg" viewBox="0 -1000 1000 1000">
	<path fill="#CC0502" d="M273 -460C273 -443 275 -425 276 -411H203C202 -428 201 -445 201 -462C201 -489 203 -515 208 -539H283C277 -518 273 -488 273 -460ZM163 -460C163 -443 165 -426 166 -411C159 -411 152 -411 146 -410C140 -410 137 -409 137 -405C137 -401 138 -398 144 -398H327C335 -398 336 -399 336 -403C336 -407 335 -410 328 -410H313C312 -427 311 -445 311 -462C311 -489 313 -515 318 -539H341C348 -539 349 -540 350 -544C350 -549 349 -552 341 -552H216H160C153 -552 151 -550 151 -546C150 -542 152 -539 158 -539H173C167 -518 163 -488 163 -460ZM213 -346C210 -346 206 -344 202 -342C186 -334 149 -311 116 -286C107 -297 98 -306 91 -311C86 -315 78 -314 70 -313C66 -313 56 -312 67 -302C73 -296 85 -284 96 -271C61 -241 29 -206 15 -192C13 -190 13 -188 13 -186C13 -181 16 -178 19 -178C21 -178 22 -178 24 -180C41 -197 71 -230 105 -259C114 -247 120 -236 125 -228C129 -221 134 -222 139 -222C144 -224 155 -226 151 -233C149 -238 137 -259 125 -275C158 -300 193 -321 213 -332C217 -335 218 -337 218 -339C218 -342 216 -346 213 -346Z"/>
</svg>