<svg xmlns="http://www.w3.org/2000/svg" viewBox="0 -1000 1000 1000">
	<path fill="#CC0502" d="M33 -458C33 -439 35 -421 36 -405C37 -399 48 -399 56 -399C63 -399 73 -399 72 -405C71 -425 69 -439 69 -457C69 -488 72 -512 77 -539H152C147 -517 143 -487 143 -458C143 -439 145 -421 146 -405C147 -399 158 -399 166 -399C173 -399 183 -399 182 -405C181 -425 179 -439 179 -457C179 -488 182 -512 187 -539H206C215 -539 215 -541 215 -546C215 -550 213 -552 207 -552H82H25C19 -552 16 -550 16 -546C16 -542 18 -539 24 -539H42C37 -517 33 -487 33 -458ZM117 -595C130 -595 140 -608 140 -621C140 -631 132 -643 119 -643C107 -643 97 -629 97 -616C97 -606 105 -595 117 -595Z"/>
</svg>