<svg xmlns="http://www.w3.org/2000/svg" viewBox="0 -1000 1000 1000">
	<path fill="#CC0502" d="M157 -411H83C82 -426 81 -440 81 -455C81 -484 83 -513 88 -539H163C158 -516 155 -485 155 -455C155 -439 156 -424 157 -411ZM47 -411C39 -411 33 -411 27 -410C20 -410 17 -409 17 -405C17 -401 19 -398 25 -398H208C215 -398 216 -399 217 -403C217 -407 216 -410 208 -410L193 -411C192 -425 191 -440 191 -455C191 -484 193 -513 198 -539H221C230 -539 230 -541 230 -546C230 -550 228 -552 222 -552H97H40C34 -552 31 -550 31 -546C31 -542 33 -539 39 -539H53C48 -516 45 -485 45 -456C45 -440 46 -425 47 -411ZM128 -595C141 -595 151 -608 151 -621C151 -631 143 -643 130 -643C118 -643 108 -629 108 -616C108 -606 116 -595 128 -595Z"/>
</svg>