<svg xmlns="http://www.w3.org/2000/svg" viewBox="0 -1000 1000 1000">
	<path fill="#CC0502" d="M148 -460C148 -443 150 -425 151 -411H78C77 -428 76 -445 76 -462C76 -489 78 -515 83 -539H158C152 -518 148 -488 148 -460ZM38 -460C38 -443 40 -426 41 -411C34 -411 27 -411 21 -410C15 -410 12 -409 12 -405C12 -401 13 -398 19 -398H202C210 -398 211 -399 211 -403C211 -407 210 -410 203 -410H188C187 -427 186 -445 186 -462C186 -489 188 -515 193 -539H216C223 -539 224 -540 225 -544C225 -549 224 -552 216 -552H91H35C28 -552 26 -550 26 -546C25 -542 27 -539 33 -539H48C42 -518 38 -488 38 -460Z"/>
</svg>