<svg xmlns="http://www.w3.org/2000/svg" viewBox="0 -1000 1000 1000">
	<path fill="#CC0502" d="M379 -545C380 -552 369 -553 363 -553C358 -553 350 -552 346 -549C320 -533 292 -496 270 -458C264 -475 259 -516 259 -538V-545C260 -552 249 -553 243 -553C238 -553 230 -552 226 -549C213 -541 192 -520 174 -496C166 -485 126 -426 126 -410C126 -402 139 -402 141 -409C145 -414 173 -464 178 -470C192 -489 208 -513 220 -525C220 -506 225 -485 231 -460C235 -439 239 -428 245 -408C246 -402 259 -404 261 -409C265 -414 283 -444 298 -465C314 -488 330 -511 341 -521C341 -501 345 -485 351 -460C355 -439 359 -428 365 -408C366 -402 374 -401 382 -401C390 -401 401 -402 401 -407C401 -438 379 -492 379 -532ZM212 -360C209 -360 205 -358 201 -356C185 -348 148 -325 115 -300C106 -311 97 -320 90 -325C85 -329 77 -328 69 -327C65 -327 55 -326 66 -316C72 -310 84 -298 95 -285C60 -255 28 -220 14 -206C12 -204 12 -202 12 -200C12 -195 15 -192 18 -192C20 -192 21 -192 23 -194C40 -211 70 -244 104 -273C113 -261 119 -250 124 -242C128 -235 133 -236 138 -236C143 -238 154 -240 150 -247C148 -252 136 -273 124 -289C157 -314 192 -335 212 -346C216 -349 217 -351 217 -353C217 -356 215 -360 212 -360Z"/>
</svg>