<svg xmlns="http://www.w3.org/2000/svg" viewBox="0 -1000 1000 1000">
	<path fill="#CC0502" d="M52 -466C70 -466 82 -485 102 -485C116 -485 130 -475 130 -454C130 -436 115 -430 96 -430C80 -430 64 -436 50 -436C42 -436 33 -435 27 -428C20 -420 18 -410 17 -410C17 -408 19 -408 20 -408H21C28 -414 34 -420 47 -420C64 -420 80 -415 97 -415C130 -415 161 -428 161 -461C161 -489 140 -507 119 -507C97 -507 80 -487 64 -487C46 -487 38 -499 38 -514C38 -529 50 -539 67 -539C76 -539 84 -537 87 -529C88 -528 95 -528 95 -529C96 -536 95 -549 102 -554C103 -555 102 -560 100 -560C96 -560 90 -557 83 -554C76 -550 65 -551 57 -550C35 -548 11 -530 11 -506C11 -485 31 -466 52 -466Z"/>
</svg>