<svg xmlns="http://www.w3.org/2000/svg" viewBox="0 -1000 1000 1000">
	<path fill="#CC0502" d="M21 -137C21 -83 43 -46 83 -38C85 -38 87 -37 88 -37C97 -37 101 -42 101 -47C101 -52 98 -56 92 -59C76 -67 54 -96 54 -148C54 -201 101 -258 140 -289C153 -299 193 -331 208 -331C227 -331 231 -315 231 -301C231 -265 203 -219 183 -161C181 -154 180 -148 180 -142C180 -118 194 -102 219 -102C252 -102 278 -122 288 -159C290 -165 290 -171 290 -176C290 -207 263 -216 244 -216C239 -216 234 -215 231 -214C231 -214 263 -281 263 -310C263 -340 258 -358 225 -358C152 -358 21 -218 21 -137ZM261 -169C261 -153 256 -127 232 -127C218 -127 207 -140 207 -152C207 -154 207 -156 208 -158C213 -173 218 -183 221 -189C223 -193 228 -195 234 -195C246 -195 261 -187 261 -169Z"/>
</svg>