<svg xmlns="http://www.w3.org/2000/svg" viewBox="0 -1000 1000 1000">
	<path fill="#CC0502" d="M151 -411H77C76 -426 75 -440 75 -455C75 -484 77 -513 82 -539H157C152 -516 149 -485 149 -455C149 -439 150 -424 151 -411ZM41 -411C33 -411 27 -411 21 -410C14 -410 11 -409 11 -405C11 -401 13 -398 19 -398H202C209 -398 210 -399 211 -403C211 -407 210 -410 202 -410H187C186 -424 185 -440 185 -455C185 -484 187 -513 192 -539H215C224 -539 224 -541 224 -546C224 -550 222 -552 216 -552H91H34C28 -552 25 -550 25 -546C25 -542 27 -539 33 -539H47C42 -516 39 -485 39 -456C39 -440 40 -425 41 -411ZM162 -593C175 -593 185 -606 185 -619C185 -629 177 -641 164 -641C152 -641 142 -627 142 -614C142 -604 150 -593 162 -593ZM82 -593C95 -593 105 -606 105 -619C105 -629 97 -641 84 -641C72 -641 62 -627 62 -614C62 -604 70 -593 82 -593Z"/>
</svg>