<svg xmlns="http://www.w3.org/2000/svg" viewBox="0 -1000 1000 1000">
	<path fill="#CC0502" d="M420 -344C420 -350 408 -351 403 -351C397 -351 387 -352 385 -345C381 -327 378 -306 375 -284H301C303 -307 307 -327 310 -343C312 -350 298 -351 293 -351C287 -351 277 -352 275 -345C269 -322 264 -291 264 -261C264 -242 266 -223 268 -207C268 -201 279 -201 287 -201C294 -201 304 -201 304 -207C302 -228 301 -241 301 -261V-270H375C374 -266 374 -262 374 -258C374 -240 376 -223 378 -207C378 -201 389 -201 397 -201C404 -201 414 -201 414 -207C414 -228 411 -243 411 -264C411 -294 420 -323 420 -344ZM105 -260C105 -241 107 -223 108 -207C109 -201 120 -201 126 -201C132 -201 145 -201 144 -207C143 -227 141 -240 141 -258C141 -288 144 -313 149 -341H211C209 -335 209 -327 210 -321C213 -312 227 -302 234 -302C241 -302 234 -312 237 -326C238 -334 244 -340 245 -346C245 -350 244 -354 236 -354H97C90 -353 88 -352 88 -348C88 -344 89 -341 95 -341H114C109 -323 105 -287 105 -260ZM204 -170C201 -170 197 -168 193 -166C177 -158 140 -135 107 -110C98 -121 89 -130 82 -135C77 -139 69 -138 61 -137C57 -137 47 -136 58 -126C64 -120 76 -108 87 -95C52 -65 20 -30 6 -16C4 -14 4 -12 4 -10C4 -5 7 -2 10 -2C12 -2 13 -2 15 -4C32 -21 62 -54 96 -83C105 -71 111 -60 116 -52C120 -45 125 -49 130 -50C136 -50 146 -50 142 -57C140 -62 128 -83 116 -99C149 -124 184 -145 204 -156C208 -159 209 -161 209 -163C209 -166 207 -170 204 -170Z"/>
</svg>