<svg xmlns="http://www.w3.org/2000/svg" viewBox="0 -1000 1000 1000">
	<path fill="#CC0502" d="M200 -196C197 -196 191 -192 189 -190C178 -186 151 -167 135 -155C126 -166 116 -175 109 -180C106 -182 103 -183 100 -182H88C86 -181 84 -180 81 -180C78 -178 80 -175 86 -170L99 -157C104 -153 110 -147 115 -140C106 -132 96 -125 89 -119C80 -130 71 -138 63 -143C60 -145 57 -146 54 -146H42C40 -144 38 -143 35 -143C33 -141 35 -138 40 -133L53 -121C58 -116 64 -110 70 -103C46 -82 23 -54 5 -35C3 -34 3 -32 3 -31C3 -27 6 -22 11 -22C12 -22 14 -22 15 -24C29 -39 58 -72 79 -92C88 -82 93 -71 100 -61C104 -55 106 -58 114 -59L124 -61C125 -62 126 -63 126 -65C126 -77 100 -107 99 -108C105 -114 114 -121 124 -128H125C134 -118 138 -108 146 -98C150 -92 152 -95 160 -95L170 -97C171 -98 172 -100 172 -101C172 -113 147 -141 145 -144C166 -160 187 -175 200 -183C203 -185 204 -187 204 -189C204 -192 203 -196 200 -196Z"/>
</svg>