<svg xmlns="http://www.w3.org/2000/svg" viewBox="0 -1000 1000 1000">
	<path fill="#CC0502" d="M3 -255C3 -201 25 -164 65 -156C67 -156 69 -155 70 -155C79 -155 83 -160 83 -165C83 -170 80 -174 74 -177C58 -185 36 -214 36 -266C36 -319 83 -376 122 -407C135 -417 175 -449 190 -449C209 -449 213 -433 213 -419C213 -383 185 -337 165 -279C163 -272 162 -266 162 -260C162 -236 176 -220 201 -220C234 -220 260 -240 270 -277C272 -283 272 -289 272 -294C272 -325 245 -334 226 -334C221 -334 216 -333 213 -332C213 -332 245 -399 245 -428C245 -458 240 -476 207 -476C134 -476 3 -336 3 -255ZM243 -287C243 -271 238 -245 214 -245C200 -245 189 -258 189 -270C189 -272 189 -274 190 -276C195 -291 200 -301 203 -307C205 -311 210 -313 216 -313C228 -313 243 -305 243 -287ZM363 -294C334 -287 266 -205 248 -162C244 -153 266 -152 270 -158C293 -192 312 -230 344 -249C348 -252 348 -241 349 -230C351 -211 354 -181 364 -157C365 -154 369 -152 374 -152C384 -152 398 -158 398 -163C398 -200 383 -268 373 -287C370 -292 370 -294 366 -294ZM302 -4C348 -4 384 -33 384 -72C384 -121 346 -138 315 -138C266 -138 230 -107 230 -67C230 -26 266 -4 302 -4ZM307 -116C332 -116 346 -91 346 -67C346 -44 335 -23 309 -23C283 -23 269 -48 269 -72C269 -95 281 -116 307 -116Z"/>
</svg>