<svg xmlns="http://www.w3.org/2000/svg" viewBox="0 -1000 1000 1000">
	<path fill="#CC0502" d="M105 -91C105 -68 103 -54 103 -31C103 -21 107 -16 115 -16C131 -16 139 -25 139 -43V-109C178 -112 207 -113 225 -115C230 -115 233 -110 233 -97V-71C233 -63 231 -53 231 -44C231 -32 233 -23 244 -23C268 -23 270 -49 270 -75V-120L311 -123C325 -124 340 -125 355 -125C361 -125 365 -119 365 -108C365 -89 364 -72 363 -48C363 -38 367 -33 375 -33C399 -33 401 -56 401 -82V-114C401 -126 400 -139 393 -139C371 -139 351 -138 331 -137C227 -129 43 -114 17 -108C13 -107 11 -105 11 -103V-98C12 -95 13 -93 17 -93C43 -97 68 -100 93 -103C104 -104 105 -102 105 -91Z"/>
</svg>