<svg xmlns="http://www.w3.org/2000/svg" viewBox="0 -1000 1000 1000">
	<path fill="#CC0502" d="M266 -544C267 -551 256 -552 250 -552C245 -552 237 -551 233 -548C207 -532 179 -495 157 -457C151 -474 146 -515 146 -537V-544C147 -551 136 -552 130 -552C125 -552 117 -551 113 -548C100 -540 79 -519 61 -495C53 -484 13 -425 13 -409C13 -401 26 -401 28 -408C32 -413 60 -463 65 -469C79 -488 95 -512 107 -524C108 -505 112 -484 118 -459C122 -438 126 -427 132 -407C133 -401 146 -403 148 -408C152 -413 170 -443 185 -464C201 -487 217 -510 228 -520C229 -500 232 -484 238 -459C242 -438 246 -427 252 -407C253 -401 261 -400 269 -400C277 -400 288 -401 288 -406C288 -437 266 -491 266 -531ZM230 -596C243 -596 253 -609 253 -622C253 -632 245 -644 232 -644C220 -644 210 -630 210 -617C210 -607 218 -596 230 -596ZM150 -596C163 -596 173 -609 173 -622C173 -632 165 -644 152 -644C140 -644 130 -630 130 -617C130 -607 138 -596 150 -596Z"/>
</svg>