<svg xmlns="http://www.w3.org/2000/svg" viewBox="0 -1000 1000 1000">
	<path fill="#CC0502" d="M95 -183C116 -183 130 -163 130 -139C130 -123 119 -113 96 -113H95C93 -112 91 -112 90 -112C70 -112 63 -123 62 -145C62 -164 74 -183 95 -183ZM63 -192C64 -210 66 -225 69 -243H111C109 -237 109 -239 110 -233C113 -224 127 -214 134 -214C141 -214 134 -224 137 -238C138 -246 144 -242 145 -248C145 -252 144 -256 136 -256H17C10 -255 8 -254 8 -250C8 -246 9 -243 15 -243H34C29 -225 25 -189 25 -162C25 -143 27 -125 28 -109C29 -104 25 -105 32 -97C37 -94 59 -92 80 -92C91 -92 103 -93 110 -94C142 -99 150 -111 150 -152C149 -182 123 -201 98 -201C84 -201 72 -197 63 -192Z"/>
</svg>