<svg xmlns="http://www.w3.org/2000/svg" viewBox="0 -1000 1000 1000">
	<path fill="#CC0502" d="M141 -294C112 -287 44 -205 26 -162C22 -153 44 -152 48 -158C71 -192 90 -230 122 -249C126 -252 126 -241 127 -230C129 -211 132 -181 142 -157C143 -154 147 -152 152 -152C162 -152 176 -158 176 -163C176 -200 161 -268 151 -287C148 -292 148 -294 144 -294ZM80 -4C126 -4 162 -33 162 -72C162 -121 124 -138 93 -138C44 -138 8 -107 8 -67C8 -26 44 -4 80 -4ZM85 -116C110 -116 124 -91 124 -67C124 -44 113 -23 87 -23C61 -23 47 -48 47 -72C47 -95 59 -116 85 -116Z"/>
</svg>