<svg xmlns="http://www.w3.org/2000/svg" viewBox="0 -1000 1000 1000">
	<path fill="#CC0502" d="M37 -241C48 -236 60 -233 72 -233C78 -233 84 -233 89 -235C109 -241 125 -259 131 -294C132 -297 132 -301 132 -304C132 -330 116 -355 90 -355C67 -355 43 -336 34 -315C19 -281 11 -255 9 -228C8 -218 8 -206 8 -194C8 -177 9 -160 11 -148C13 -140 16 -128 25 -128H26C36 -128 44 -134 41 -146C38 -158 35 -172 34 -186V-200C34 -215 35 -231 37 -241ZM44 -266C50 -284 59 -323 81 -323C93 -323 102 -315 102 -302C102 -283 96 -265 82 -260C78 -259 74 -258 69 -258C60 -258 51 -261 44 -266Z"/>
</svg>