<svg xmlns="http://www.w3.org/2000/svg" viewBox="0 -1000 1000 1000">
	<path fill="#CC0502" d="M340 -344C340 -350 328 -351 323 -351C317 -351 307 -352 305 -345C301 -327 298 -306 295 -284H221C223 -307 227 -327 230 -343C232 -350 218 -351 213 -351C207 -351 197 -352 195 -345C189 -322 184 -291 184 -261C184 -242 186 -223 188 -207C188 -201 199 -201 207 -201C214 -201 224 -201 224 -207C222 -228 221 -241 221 -261V-270H295C294 -266 294 -262 294 -258C294 -240 296 -223 298 -207C298 -201 309 -201 317 -201C324 -201 334 -201 334 -207C332 -228 331 -243 331 -264C331 -294 340 -323 340 -344ZM25 -260C25 -241 27 -223 28 -207C29 -201 40 -201 46 -201C52 -201 65 -201 64 -207C63 -227 61 -240 61 -258C61 -288 64 -313 69 -341H131C129 -335 129 -327 130 -321C133 -312 147 -302 154 -302C161 -302 154 -312 157 -326C158 -334 164 -340 165 -346C165 -350 164 -354 156 -354H17C10 -353 8 -352 8 -348C8 -344 9 -341 15 -341H34C29 -323 25 -287 25 -260Z"/>
</svg>