<svg xmlns="http://www.w3.org/2000/svg" viewBox="0 -1000 1000 1000">
	<path fill="#CC0502" d="M155 -594C168 -594 178 -607 178 -620C178 -630 170 -642 157 -642C145 -642 135 -628 135 -615C135 -605 143 -594 155 -594ZM75 -594C88 -594 98 -607 98 -620C98 -630 90 -642 77 -642C65 -642 55 -628 55 -615C55 -605 63 -594 75 -594ZM143 -459C143 -440 145 -421 147 -405C147 -399 158 -399 166 -399C173 -399 183 -399 183 -405C182 -423 181 -442 181 -461C181 -488 183 -514 188 -539H207C214 -539 215 -540 216 -544C216 -549 215 -552 207 -552H83H26C18 -552 17 -549 17 -544C17 -541 19 -539 24 -539H43C37 -518 33 -487 33 -459C33 -440 35 -421 37 -405C37 -399 48 -399 56 -399C63 -399 73 -399 73 -405C73 -423 71 -442 71 -461C71 -488 73 -514 78 -539H153C147 -518 143 -487 143 -459Z"/>
</svg>