<svg xmlns="http://www.w3.org/2000/svg" viewBox="0 -1000 1000 1000">
	<path fill="#CC0502" d="M38 -460C38 -441 40 -423 41 -407C42 -401 53 -401 59 -401C65 -401 78 -401 77 -407C76 -427 74 -440 74 -458C74 -488 77 -513 82 -541H144C142 -535 142 -527 143 -521C146 -512 160 -502 167 -502C174 -502 167 -512 170 -526C171 -534 177 -540 178 -546C178 -550 177 -554 169 -554H30C23 -553 21 -552 21 -548C21 -544 22 -541 28 -541H47C42 -523 38 -487 38 -460ZM110 -596C123 -596 133 -609 133 -622C133 -632 125 -644 112 -644C100 -644 90 -630 90 -617C90 -607 98 -596 110 -596Z"/>
</svg>