<svg xmlns="http://www.w3.org/2000/svg" viewBox="0 -1000 1000 1000">
	<path fill="#CC0502" d="M281 -344C281 -350 271 -351 265 -351C260 -351 252 -350 247 -347C235 -339 217 -316 199 -292C183 -269 170 -245 162 -229C160 -248 160 -259 160 -278C160 -304 164 -319 169 -344C170 -351 158 -352 152 -352H148C143 -352 137 -351 135 -346C128 -325 124 -294 124 -265C124 -244 125 -224 127 -207C128 -201 140 -201 145 -200C151 -199 160 -201 163 -207C166 -212 197 -263 202 -270C216 -288 234 -316 242 -323C238 -304 236 -286 236 -264C236 -243 237 -223 239 -206C240 -201 248 -199 257 -199C266 -199 275 -201 275 -205C275 -228 272 -244 272 -266C272 -297 281 -316 281 -344ZM203 -162C200 -162 196 -160 192 -158C176 -150 139 -127 106 -102C97 -113 88 -122 81 -127C76 -131 68 -130 60 -129C56 -129 46 -128 57 -118C63 -112 75 -100 86 -87C51 -57 19 -22 5 -8C3 -6 3 -4 3 -2C3 3 6 6 9 6C11 6 12 6 14 4C31 -13 61 -46 95 -75C104 -63 110 -52 115 -44C119 -37 124 -41 129 -42C135 -42 145 -42 141 -49C139 -54 127 -75 115 -91C148 -116 183 -137 203 -148C207 -151 208 -153 208 -155C208 -158 206 -162 203 -162Z"/>
</svg>