<svg xmlns="http://www.w3.org/2000/svg" viewBox="0 -1000 1000 1000">
	<path fill="#CC0502" d="M162 -344C162 -350 152 -351 146 -351C141 -351 133 -350 128 -347C116 -339 98 -316 80 -292C64 -269 51 -245 43 -229C41 -248 41 -259 41 -278C41 -304 45 -319 50 -344C51 -351 39 -352 33 -352H29C24 -352 18 -351 16 -346C9 -325 5 -294 5 -265C5 -244 6 -224 8 -207C9 -201 23 -200 29 -200C35 -200 41 -202 44 -207C47 -212 78 -263 83 -270C97 -288 115 -316 123 -323C119 -304 117 -286 117 -264C117 -243 118 -223 120 -206C121 -201 129 -199 138 -199C147 -199 156 -201 156 -205C156 -228 153 -244 153 -266C153 -297 162 -316 162 -344Z"/>
</svg>